<svg width="300" height="200" viewBox="0 0 300 200" xmlns="http://www.w3.org/2000/svg">
  <rect width="300" height="200" fill="#f5f5f5"/>
  <rect x="100" y="40" width="100" height="140" fill="#e0e0e0" rx="8"/>
  <rect x="110" y="50" width="80" height="30" fill="#ffffff" rx="4"/>
  <rect x="115" y="90" width="20" height="20" fill="#ffffff" rx="2"/>
  <rect x="140" y="90" width="20" height="20" fill="#ffffff" rx="2"/>
  <rect x="165" y="90" width="20" height="20" fill="#ffffff" rx="2"/>
  <rect x="115" y="115" width="20" height="20" fill="#ffffff" rx="2"/>
  <rect x="140" y="115" width="20" height="20" fill="#ffffff" rx="2"/>
  <rect x="165" y="115" width="20" height="20" fill="#ffffff" rx="2"/>
  <rect x="115" y="140" width="20" height="20" fill="#ffffff" rx="2"/>
  <rect x="140" y="140" width="20" height="20" fill="#ffffff" rx="2"/>
  <rect x="165" y="140" width="20" height="20" fill="#ffffff" rx="2"/>
  <text x="150" y="70" font-family="Arial" font-size="12" text-anchor="middle" fill="#666666">0</text>
  <text x="125" y="105" font-family="Arial" font-size="12" text-anchor="middle" fill="#666666">1</text>
  <text x="150" y="105" font-family="Arial" font-size="12" text-anchor="middle" fill="#666666">2</text>
  <text x="175" y="105" font-family="Arial" font-size="12" text-anchor="middle" fill="#666666">3</text>
  <text x="125" y="130" font-family="Arial" font-size="12" text-anchor="middle" fill="#666666">4</text>
  <text x="150" y="130" font-family="Arial" font-size="12" text-anchor="middle" fill="#666666">5</text>
  <text x="175" y="130" font-family="Arial" font-size="12" text-anchor="middle" fill="#666666">6</text>
  <text x="125" y="155" font-family="Arial" font-size="12" text-anchor="middle" fill="#666666">7</text>
  <text x="150" y="155" font-family="Arial" font-size="12" text-anchor="middle" fill="#666666">8</text>
  <text x="175" y="155" font-family="Arial" font-size="12" text-anchor="middle" fill="#666666">9</text>
</svg> 